# xmcd CD database file
#
# Track frame offsets:
#	150
#	17815
#	31242
#	46787
#	66500
#	81845
#	93277
#	112930
#	131215
#	151617
#	166612
#	186890
#	201255
#	217810
#
# Disc length: 3010 seconds
#
# Revision: 0
# Processed by: cddbd v1.5.1PL0 Copyright (c) Steve Scherf et al.
# Submitted via: CDex 1.51
#
DISCID=ad0bc00e
DTITLE=Romeos, The - Rookies Of The Year
DYEAR=1993
DGENRE=Jazz
TTITLE0=(Making Good Friends) With A Gun
TTITLE1=Coal Man
TTITLE2=No Exit
TTITLE3=Whatever I Go For
TTITLE4=Liquid Life
TTITLE5=Ways Of Gold
TTITLE6=The Cold
TTITLE7=We Can't Find
TTITLE8=Guitar Heaven
TTITLE9=Six Roses
TTITLE10=Ghosts In The House
TTITLE11=You Set Me Right
TTITLE12=My Last Will
TTITLE13=Oh You
EXTD=YEAR: 1993
EXTT0=
EXTT1=
EXTT2=
EXTT3=
EXTT4=
EXTT5=
EXTT6=
EXTT7=
EXTT8=
EXTT9=
EXTT10=
EXTT11=
EXTT12=
EXTT13=
PLAYORDER=
